<?xml version="1.0" encoding="utf-8"?>
<!-- Generator: Adobe Illustrator 26.1.0, SVG Export Plug-In . SVG Version: 6.00 Build 0)  -->
<svg version="1.1" id="Layer_1" xmlns="http://www.w3.org/2000/svg" xmlns:xlink="http://www.w3.org/1999/xlink" x="0px" y="0px"
	 viewBox="0 0 56 56" enable-background="new 0 0 56 56" xml:space="preserve">
<path vector-effect="non-scaling-stroke" stroke="#FFFFFF" stroke-miterlimit="10" d="M8.7,17.9l5.3,5.9v10l-5.3,6.5L3,33.8v-10
	L8.7,17.9z M8.7,17.9h28.9L53,29L37.6,40.2H8.7 M14,23.8h26.1 M14,33.8h26.1 M37.6,17.9c0,0,3.4,5.4,3.4,11.2
	c0,5.2-3.4,11.2-3.4,11.2 M8.5,24.7c0.9,0,1.7,1.9,1.7,4.3s-0.8,4.3-1.7,4.3S6.8,31.4,6.8,29S7.6,24.7,8.5,24.7z"/>
</svg>
