<svg width="24" height="24" viewBox="0 0 24 24" fill="none" xmlns="http://www.w3.org/2000/svg">
<path d="M16.9992 8.5C16.9992 6.01562 14.7617 4 11.9992 4C9.23668 4 6.99918 6.01562 6.99918 8.5C6.99918 9.97187 7.78356 11.2781 8.99918 12.1V13C8.99918 13.5531 9.44606 14 9.99918 14H13.9992C14.5523 14 14.9992 13.5531 14.9992 13V12.1C16.2148 11.2781 16.9992 9.97187 16.9992 8.5ZM9.99918 8C10.5523 8 10.9992 8.44687 10.9992 9C10.9992 9.55313 10.5523 10 9.99918 10C9.44606 10 8.99918 9.55313 8.99918 9C8.99918 8.44687 9.44606 8 9.99918 8ZM12.9992 9C12.9992 8.44687 13.4461 8 13.9992 8C14.5523 8 14.9992 8.44687 14.9992 9C14.9992 9.55313 14.5523 10 13.9992 10C13.4461 10 12.9992 9.55313 12.9992 9ZM18.9211 14.6156C18.7086 14.1063 18.1242 13.8656 17.6148 14.0781L11.9992 16.4156L6.38356 14.0781C5.87418 13.8656 5.28981 14.1063 5.07731 14.6156C4.86481 15.125 5.10543 15.7094 5.61481 15.9219L9.39918 17.5L5.61481 19.0781C5.10543 19.2906 4.86481 19.875 5.07731 20.3844C5.28981 20.8937 5.87418 21.1344 6.38356 20.9219L11.9992 18.5844L17.6148 20.9219C18.1242 21.1344 18.7086 20.8937 18.9211 20.3844C19.1336 19.875 18.8929 19.2906 18.3836 19.0781L14.5992 17.5L18.3836 15.9219C18.8929 15.7094 19.1336 15.125 18.9211 14.6156Z" fill="black"/>
</svg>
